<svg id="logotype" xmlns="http://www.w3.org/2000/svg" viewBox="0 0 933.66 300">
  <defs>
    <style>
      .cls-1 {
        fill: #1d1d1b;
      }

      .cls-2 {
        fill: #46a748;
      }

      .cls-3 {
        fill: #6bb96d;
      }

      .cls-4 {
        fill: #fff;
      }
    </style>
  </defs>
  <title>dina-logo</title>
  <g id="type">
    <g>
      <path class="cls-1" d="M375.42,66.28c0-5.82-1.34-7.16-8.28-7.61V55.09h29c18.91,0,31.78,14.77,31.78,38.49S415,132.08,396.12,132.08h-29V128.5c6.94-.45,8.28-1.79,8.28-7.61V66.28Zm11,54.61c0,5.37,2.46,7.61,9.06,7.61,12.31,0,19.92-7.83,19.92-34.91s-7.61-34.91-19.92-34.91c-6.6,0-9.06,2.24-9.06,7.61v54.61Z" transform="translate(-5.18 -5)"/>
      <path class="cls-1" d="M438,132.08V128.5c5.37-.22,7.16-2.24,7.16-5.59V87.32c0-4.81-1.34-5.6-7.16-5.82V77.92l16.79-.67V122.9c0,3.36,1.79,5.37,7.16,5.59v3.58H438Zm16.79-70.95c0,4.25-2.35,7.16-5.71,7.16s-5.71-2.91-5.71-7.16S445.69,54,449,54,454.76,56.88,454.76,61.13Z" transform="translate(-5.18 -5)"/>
      <path class="cls-1" d="M468.52,132.08V128.5c5.37-.22,7.16-2.24,7.16-5.59V88c0-4.81-1.34-5.6-7.39-5.82V78.59l16.34-.67V88.66h0.22c3-6.27,7.38-11.41,15-11.41,9.29,0,13.65,6,13.65,15.89V122.9c0,3.8,1.57,5.37,6.94,5.59v3.58H503.88V92.24c0-7.38-2.8-9.85-6.6-9.85-5.93,0-12,7.84-12,18.8V122.9c0,3.36,1.79,5.37,7.16,5.59v3.58H468.52Z" transform="translate(-5.18 -5)"/>
      <path class="cls-1" d="M573,116.64c0,11.75-2.35,16.78-9.29,16.78-5.37,0-8.39-2.69-9.06-8.73h-0.22c-2.69,5-6,8.73-13.88,8.73-8.62,0-13.65-5.26-13.65-12.64,0-12.76,17.68-18,27.3-21.6V90c0-6.38-2.91-9.18-8.84-9.18-3.92,0-7.16,1.23-9.51,4,3.58,0.33,4.7,3,4.7,6.27,0,4-2.46,6.49-5.59,6.49s-5.37-2.24-5.37-6.71c0-7.61,7.16-13.65,16.9-13.65,12.53,0,17.35,5.71,17.35,14.1v31.11c0,3.25.78,4.7,2.35,4.7,2.13,0,3-2.46,3.25-10.52H573Zm-18.8-13.21c-9,3.13-17,7.39-17,16.9,0,5.93,2.69,8.84,6.16,8.84,5.71,0,10.85-6.71,10.85-19.36v-6.38Z" transform="translate(-5.18 -5)"/>
    </g>
    <g>
      <path class="cls-1" d="M367.14,244V240.4c6.94-.45,8.28-1.79,8.28-7.61V178.18c0-5.82-1.34-7.16-8.28-7.61V167h52.7v29.32h-3.58c-1.68-14.66-6.27-25.07-19.36-25.07-8.28,0-10.52,1.79-10.52,6.94v23.28h3.13c6.94,0,9.85-4.48,11.41-14.1h3.58v32.45h-3.58c-1.57-9.62-4.48-14.1-11.41-14.1h-3.13v27.08c0,5.82,1.34,7.16,10.29,7.61V244H367.14Z" transform="translate(-5.18 -5)"/>
      <path class="cls-1" d="M448.94,189.15c10.52,0,21,11.19,21,28.08s-10.52,28.09-21,28.09-21-11.19-21-28.09S438.42,189.15,448.94,189.15Zm-9.51-16.34a5.15,5.15,0,1,1-5.15,5.15A5,5,0,0,1,439.43,172.81Zm9.51,68.93c6.27,0,10.74-5.15,10.74-24.51s-4.48-24.51-10.74-24.51-10.74,5.15-10.74,24.51S442.67,241.74,448.94,241.74Zm9.73-68.93a5.15,5.15,0,1,1-5.15,5.15A5,5,0,0,1,458.67,172.81Z" transform="translate(-5.18 -5)"/>
      <path class="cls-1" d="M479.15,244V240.4c4.7-.22,6.49-2.24,6.49-5.59V204.37c0-7.61-1.34-10.07-6.94-10.3v-3.58l15.44-.67v13h0.22c1.46-5.82,5.48-13.65,12.2-13.65,4.14,0,8.17,3.47,8.17,9.73,0,4.81-2.35,7.27-5.26,7.27-2.46,0-5-1.57-5-6.6,0-2.69,1.57-5.48,4.81-5.48a3.33,3.33,0,0,0-2.91-1.34c-7.61.11-11.08,16.45-11.08,26.19V234.8c0,3.36,1.79,5.37,9.4,5.59V244H479.15Z" transform="translate(-5.18 -5)"/>
      <path class="cls-1" d="M521.45,244V223.84H525c1.12,7.05,4.81,17.91,13.88,17.91,5.6,0,9.85-3.35,9.85-9.73,0-14.44-26.86-8.06-26.86-27.75,0-6.94,5-15.1,14.88-15.1,6.15,0,8.61,3.35,10.63,3.35,1.12,0,1.34-1.23,1.79-2h3.58v17.68H549.2c-1.23-6.27-4.25-15.44-12-15.44-4.92,0-8.17,3.25-8.17,8.06,0,13.43,27.75,7.39,27.75,28a16.85,16.85,0,0,1-17.35,16.56c-7.5,0-9.74-4-12.42-4-1.23,0-1.79,1.68-2,2.69h-3.58Z" transform="translate(-5.18 -5)"/>
      <path class="cls-1" d="M610.52,228.54c0,11.75-2.35,16.78-9.29,16.78-5.37,0-8.39-2.69-9.06-8.73h-0.22c-2.69,5-6,8.73-13.88,8.73-8.61,0-13.65-5.26-13.65-12.64,0-12.76,17.68-18,27.3-21.6V201.9c0-6.38-2.91-9.18-8.84-9.18-3.92,0-7.16,1.23-9.51,4,3.58,0.33,4.7,3,4.7,6.27,0,4-2.46,6.49-5.59,6.49s-5.37-2.24-5.37-6.71c0-7.61,7.16-13.65,16.9-13.65,12.53,0,17.35,5.71,17.35,14.1v31.11c0,3.25.78,4.7,2.35,4.7,2.13,0,3-2.46,3.25-10.52h3.58Zm-35.25-55.73a5.15,5.15,0,1,1-5.15,5.15A5,5,0,0,1,575.27,172.81Zm16.45,42.52c-9,3.13-17,7.39-17,16.9,0,5.93,2.69,8.84,6.16,8.84,5.71,0,10.85-6.71,10.85-19.36v-6.38Zm2.8-42.52a5.15,5.15,0,1,1-5.15,5.15A5,5,0,0,1,594.52,172.81Z" transform="translate(-5.18 -5)"/>
      <path class="cls-1" d="M615,244V240.4c5.37-.22,7.16-2.24,7.16-5.59V176.39c0-4.81-1.34-5.6-7.16-5.82V167l16.78-.67v51H632l13.43-14.66c3-3.36,3.8-5.15,3.8-6.16,0-1.79-1.34-2.46-6.27-2.46v-3.58h21v3.58a14,14,0,0,0-9.4,4.81l-10.85,11.86,14.55,25.85c1.79,3.25,2.35,3.58,7.05,3.8V244h-14.1l-14.32-25.74-5.15,5.59v11c0,3.36,1.79,5.37,7.16,5.59V244H615Z" transform="translate(-5.18 -5)"/>
      <path class="cls-1" d="M670.39,244V240.4c4.7-.22,6.49-2.24,6.49-5.59V204.37c0-7.61-1.34-10.07-6.94-10.3v-3.58l15.44-.67v13h0.22c1.45-5.82,5.48-13.65,12.19-13.65,4.14,0,8.17,3.47,8.17,9.73,0,4.81-2.35,7.27-5.26,7.27-2.46,0-5-1.57-5-6.6,0-2.69,1.57-5.48,4.81-5.48a3.33,3.33,0,0,0-2.91-1.34c-7.61.11-11.08,16.45-11.08,26.19V234.8c0,3.36,1.79,5.37,9.4,5.59V244H670.39Z" transform="translate(-5.18 -5)"/>
      <path class="cls-1" d="M712.46,244V240.4c5.37-.22,7.16-2.24,7.16-5.59V199.22c0-4.81-1.34-5.6-7.16-5.82v-3.58l16.78-.67V234.8c0,3.36,1.79,5.37,7.16,5.59V244H712.46ZM729.25,173c0,4.25-2.35,7.16-5.71,7.16s-5.71-2.91-5.71-7.16,2.35-7.16,5.71-7.16S729.25,168.78,729.25,173Z" transform="translate(-5.18 -5)"/>
      <path class="cls-1" d="M743,244V240.4c5.37-.22,7.16-2.24,7.16-5.59V199.89c0-4.81-1.34-5.6-7.39-5.82v-3.58l16.34-.67v10.75h0.23c3-6.27,7.38-11.41,15-11.41,9.29,0,13.65,6,13.65,15.89V234.8c0,3.8,1.57,5.37,6.94,5.59V244H778.37V204.14c0-7.38-2.8-9.85-6.6-9.85-5.93,0-12,7.84-12,18.8V234.8c0,3.36,1.79,5.37,7.16,5.59V244H743Z" transform="translate(-5.18 -5)"/>
      <path class="cls-1" d="M812.39,237.94c-3-.45-8.28-3-8.28-7.72,0-4,3.7-6.71,7.39-9.06-4.59-3.13-7.61-7.84-7.61-14.77,0-10.07,7.72-17.23,18.58-17.23a21,21,0,0,1,8.05,1.57c0.79-4.93,3.47-7.61,8.17-7.61,3.58,0,6.16,2.68,6.16,5.48,0,3.13-1.34,5.48-4.25,5.48a3.73,3.73,0,0,1-4-3.92,12.84,12.84,0,0,1,.67-2.8c-1.9.11-3,1.9-3.35,5.15,4.36,4,6.27,7.5,6.27,13.77,0,11.08-7.72,18.24-18.69,18.24a18.72,18.72,0,0,1-6.6-1.34c-1.57.67-3.14,2-3.14,3.8,0,8.51,33.57-2.68,33.57,20,0,9.52-9,17.35-22.6,17.35C808.8,264.35,801,257,801,249.57c0-6.38,6.16-10.07,11.41-11.41v-0.22Zm10.07,22.83c9.62,0,15.22-5.37,15.22-11.08s-5.37-9.29-15.22-9.29c-11.53,0-13.88,4.25-13.88,9.51C808.58,256.06,814.85,260.76,822.46,260.76ZM822,220.93c4.25,0,7.83-2.69,7.83-14.1s-3.58-14.1-7.83-14.1-7.83,2.69-7.83,14.1S817.76,220.93,822,220.93Z" transform="translate(-5.18 -5)"/>
      <path class="cls-1" d="M897.43,228.54c0,11.75-2.35,16.78-9.29,16.78-5.37,0-8.39-2.69-9.06-8.73h-0.23c-2.69,5-6,8.73-13.87,8.73-8.62,0-13.66-5.26-13.66-12.64,0-12.76,17.68-18,27.3-21.6V201.9c0-6.38-2.91-9.18-8.84-9.18-3.91,0-7.16,1.23-9.51,4,3.58,0.33,4.7,3,4.7,6.27,0,4-2.46,6.49-5.59,6.49S854,207.27,854,202.8c0-7.61,7.16-13.65,16.9-13.65,12.53,0,17.34,5.71,17.34,14.1v31.11c0,3.25.78,4.7,2.35,4.7,2.12,0,3-2.46,3.25-10.52h3.58Zm-18.8-13.21c-8.95,3.13-17,7.39-17,16.9,0,5.93,2.69,8.84,6.16,8.84,5.71,0,10.85-6.71,10.85-19.36v-6.38Z" transform="translate(-5.18 -5)"/>
      <path class="cls-1" d="M903.25,244V240.4c4.7-.22,6.49-2.24,6.49-5.59V204.37c0-7.61-1.34-10.07-6.94-10.3v-3.58l15.44-.67v13h0.22c1.45-5.82,5.48-13.65,12.2-13.65,4.14,0,8.17,3.47,8.17,9.73,0,4.81-2.35,7.27-5.26,7.27-2.46,0-5-1.57-5-6.6,0-2.69,1.56-5.48,4.81-5.48a3.32,3.32,0,0,0-2.91-1.34c-7.61.11-11.08,16.45-11.08,26.19V234.8c0,3.36,1.79,5.37,9.4,5.59V244H903.25Z" transform="translate(-5.18 -5)"/>
    </g>
  </g>
  <g id="logo">
    <circle class="cls-2" cx="155.18" cy="155" r="149.98" transform="translate(-23.68 16.06) rotate(-7.33)"/>
    <path class="cls-3" d="M66.68,242.35c-4.28,1-10.08-.1-13.61-0.33-1.21-.76-1.92-2.33-0.1-3.44,1.8,0.28,2.74-1.68,4.61-1.07,0.28-1.8,1.32-4.81.28-6.31-6.64-.21-12.74-2.61-19.13-3.22-5-3.82-11.44-4-17.23-4.91a149.16,149.16,0,0,0,12.8,20.74,5.66,5.66,0,0,1,3.54,1.38c-0.48.77,2.5,2.94,0.15,3.46q2.22,2.77,4.57,5.44l1.19,0.15a2.81,2.81,0,0,1,1.12,2.35c2.63,2.85,5.35,5.62,8.18,8.25,2-.16,3.35-1.87,5.32-2.87,1.49-1,1.29,1.08,2.43,1.52,1.17-1,.2-2.13-0.29-2.72-2,.13-2.35-1.19-2.4-2.91,0.61-1.88,3.07-1.75,4.46-1.72a1.15,1.15,0,0,0,.89.83l-0.4-.26c1.72,0,4-2.31,5.47-3.34C67.77,250.08,69.67,244.78,66.68,242.35Z" transform="translate(-5.18 -5)"/>
    <path class="cls-3" d="M69.34,235.84a4.69,4.69,0,0,0-4.46-2.79,2.63,2.63,0,0,0-1.47,4.16c1,1.49,3.17,1.7,4.49,1.39C68.48,238.12,69.9,236.75,69.34,235.84Z" transform="translate(-5.18 -5)"/>
    <path class="cls-3" d="M85.33,236c-3.65-2.28-7.3-4.56-8.29-8.84-2.84-1.77-5.49-4.28-8.54-3.93l-0.23-1c-6.76,2.25-11.6-2.18-18.16-2.05-1.35-2.81-5.25-4.69-8.11-5.07l-0.82-.51c-2,1.85-2.15,5.7-1.21,8.26,5.93,3.14,13.18,1.47,19.18,4.94,4.76-.4,12.18,1.7,14.49,5.67,0.54,2.3-.32,4.59-0.2,6.64a24.5,24.5,0,0,1,9.63,2.63l2-.45c-0.56-.91,1.26-2,1-3Z" transform="translate(-5.18 -5)"/>
    <path class="cls-3" d="M23.91,217.87L24,218.21c3,1,7.73,3.42,10.49.35a3.08,3.08,0,0,0-.18-3.77c-2.66-2.51-8.15-2.28-11.8-4.56-1.17,1-2.51,2.66-1.72,4.56A4.15,4.15,0,0,0,23.91,217.87Z" transform="translate(-5.18 -5)"/>
    <path class="cls-3" d="M23.39,179.49c0.86,2.23.15,5.17,2.33,7.09,1.47,0.36,2.56-.94,3.73-1.9,1.09-1.29.13-2.46,0.56-3.6C27.82,179.16,26.07,180.61,23.39,179.49Z" transform="translate(-5.18 -5)"/>
    <path class="cls-3" d="M278.45,94.28c2.18,1.93.27,7.22,4.05,7,2,1.26,3.72,2.61,6.21,1.34,2.23-.86,1-3.35,2.3-5A4.42,4.42,0,0,0,292.64,95c-1.31-3-2.68-6-4.18-8.86a1.4,1.4,0,0,0-.43,0c0-.32,0-0.64-0.07-1q-3.48-6.61-7.57-12.8c-1.91-.42-4.24-0.08-5.28-1.64-1.49,1-2.12,4.3-2.15,5.7,2.92,2.1,8.49,2.2,9.73,6.08-0.2,2.12-2.21,4-1.34,6.2C278.88,88.63,279.13,92.73,278.45,94.28Z" transform="translate(-5.18 -5)"/>
    <path class="cls-3" d="M17.68,192.76a4.54,4.54,0,0,1,.85,1.74A1.1,1.1,0,0,1,17.68,192.76Zm-4.29-26.56c-2.84-1.4-5.52-1.49-7.91-2.66,0.2,3.52.49,7.05,0.94,10.6a151.43,151.43,0,0,0,3.17,16.82,6.81,6.81,0,0,1,2.63-1.24,9.36,9.36,0,0,1,5.32,2.88,0.83,0.83,0,0,0-.53-0.17c-0.1,1.06-1.68,1.77-.46,2.53-2.22,1.68-3.71.3-5.77,0.57,1,3.46,2.06,6.85,3.26,10.2,0.81-1.51,3.49-.87,5-0.22,1.36,1.42,2.45.13,3.85,0.15-0.59-4-2.25-6.76-2.76-10.46,2.45,0.13,2.91,2.1,4.28,3.52,3.45-.1,7.85,1,10.51-1,2.71-.28,2.74,2.84,5,2.31,0.63,1.24,1.62,1,2.69,1.11-0.15-.66.43-1.14,1-1.62l1-.23c-2-5.78,3-9.37,3.54-14.7-2.45-.13-3.9-1.87-7.12-0.78-5.14-1.24-7.62,4.53-11.37,7.82-3.19-.3-7.12-0.78-8.94-4.18-0.08-.33.66-0.15,1-0.23-1.8-.28-2.41-2.91-2.78-4.56,0.93-2,.73-4.33,1.59-6.61C18.95,170.81,18.27,167.84,13.38,166.19Z" transform="translate(-5.18 -5)"/>
    <path class="cls-3" d="M31.41,202.27l0.11-1.06a20,20,0,0,0-4.13,1.64c-0.05,2.79-.23,3.53.38,6.16a53.57,53.57,0,0,0,13.81,2.71c1.95,0.94,4.89,1.65,6.13,1,1.19-2.36.26-4.92-1.6-6.92C41.5,202.37,35.6,206.86,31.41,202.27Z" transform="translate(-5.18 -5)"/>
    <path class="cls-3" d="M81.42,202.53c0.92-.56,2.08-1.52,2.18-2.59-1-1.49-5-.58-4.13,1.65A1.52,1.52,0,0,0,81.42,202.53Z" transform="translate(-5.18 -5)"/>
    <path class="cls-3" d="M163.32,270.34c1.57-.71,3.8-1.57,3.6-4-0.45-2-2.08-3-4-3.93a6.55,6.55,0,0,0-4.61,5.57C157.73,271.63,161,270.88,163.32,270.34Z" transform="translate(-5.18 -5)"/>
    <path class="cls-3" d="M131.91,275.51c-1.06-.1-4.74-1-3.07-2.76a15.27,15.27,0,0,1,6.59-1.52c5.45-2,12.67,2.28,17.74-1.32,1.8-4.23-4.77-4.1-4.61-8,2.76-3.06,5.7-2.36,9.5-3.93,7.17,2.51,13.23-1.32,19-4.74,6.62-2.91,11.45-3,19.71-6.28,1.27-2,4.56-2.79,6.79-3.65,1.27-2,4.41-3.44,6.69-2.58a2,2,0,0,1,.61,2.63c-4.36.66-5.45,6.46-10.28,6.54-6.28,2.84-13.33,6.89-19.15,7.2-5.68,1-6.69,7.09-10.37,10.72l1.09,3.22c-3.26,3.87-7.85,3.55-12.51,2.89C149.85,276.58,141.66,275.69,131.91,275.51ZM151.7,247c1.8,0.28,3.62-.83,5.06.91,0.15,0.66.64,1.24,0,1.72-3.64,2.22-8,1.49-10.66.38C146.48,245.44,150.66,250,151.7,247Zm9.93-.56a8.12,8.12,0,0,1,5.7-2.35c2.08-1.52,4.74-3.53,7.43-2.42,3.36-.42,5.89,0,8.73-2.71,2-.45,4.1-0.25,5-2.21,2.56-.93,5.7-2.35,8.06-1.16-0.58,5-7.6,3.14-10.36,6.2a2.55,2.55,0,0,1-2,1.85c-4,3.7-8,1.5-11.93,2.4-1.85,2.51-6,2.76-9.58,3.59A2.62,2.62,0,0,1,161.63,246.45ZM204.09,229c3.47-1.49,7.27-3.06,9.15-7,0.69-1.55,2.89-1,2.58-2.33a4.73,4.73,0,0,1,3-.69c3.4,2.69-2,5-1.7,7.68-1.77,2.84-6,4.16-8.43,4,0.38,1.65-1.52,2.43-2.84,2.74-1.83,1.11-4.61,1.06-6.06-.69A6,6,0,0,1,204.09,229Zm9.81-29.66c-1.47-.36-3.45.1-3.5-1.62-0.53-2.31,1.8-4.23,3.3-5.27,3.37-.43,4.94-1.14,6.78-3.65-0.45-2,1.62-3.5,3-4.86,1-1.62,4.43-.33,3.57-2.56,0.58-.48,1.42-1.36,2.23-0.86,0.46-2.53,1.87-3.9,2.08-6,1.57-.71,2.49-1.27,4-0.91L235,172a2.65,2.65,0,0,1,3.32-2.15c1,1.17,1.44,1.75.76,3.29-0.84.89-2.82,1.34-3.45,0.1-0.61,1.87,1.11,1.83.76,3.29-0.28,1.8-.73,4.33-2.78,4.46-2.71.28-2.87,4.13-5.75,5.14-1.7,3.17-3.22,5.6-6.84,6.44C220,195.87,216.63,197.69,213.9,199.37Zm-6.71-9.55c-6.51,1.85-11.14,8.82-17.83,11.4C179.59,205.54,170,215,158.21,213.6c-0.73-.18-1-1.49-0.53-2.31,3.62-.84,6.53-3.24,10.34-4.81,4.63-2.46,10-3.34,13.73-6.63l13.15-6.16c3.69-5,10.44-5.88,12.51-11.91,1.91-5.29,7.43-6.91,11.41-9.22,1.32-.3,1,1.17,1.7,1.34C217.85,180.41,209.44,183,207.18,189.81Zm-0.84,14.41c-7.07,5.45-16.62,7.65-23.28,13.35-9.07,2.79-16.27,10.69-25.33,9-1.07-.1-2.54-0.46-2.26-2.25,0.38-2.86,4-2.31,5.8-3.42,7.52,1,14.92-4.48,21.79-7.8l6.36-2.51c1.67-1.78,4.15-3,5.82-4.81,4-.91,6.92-6.11,10.75-4.56A3.3,3.3,0,0,1,206.35,204.23Zm24-41.62c1.92,2.33-1.62,3.49-1.82,5.62-1.68,1.77-3.19-.31-3.57-2C226.34,164.58,227.45,161.89,230.39,162.61Zm13.76,50.59c0.91-.56,3.24-2.48,4-0.91a1,1,0,0,0,1.24-.63c0.25-.4-0.56-0.91-0.46-2,0.56-3.6,4.36-5.17,7-5.78a7,7,0,0,1,4.84-4.59c1.24-.63,1.21.76,1.7,1.34-0.59.48-.29,1.8-1.27,2-3.65,6.74-8.37,13.38-16.59,15.27-6.06,3.82-8.29,13.71-16.72,13.22-2.94-5.22,5.39-8.19,7.5-11.09,1.37,1.42,1.9-.78,2.89-1C237.38,215.45,242.55,215.3,244.14,213.19Zm0.15-35.41c1-1.62,3.14-1.42,3-3.47,0.59-.48,2.23-0.86,2.13.2-0.94,2,1.24,3.88-.5,5.32-1.42,1.37-2.84,2.74-4.79,1.8C242.85,180.54,243.87,178.92,244.3,177.78Zm6.94,10.54a19.16,19.16,0,0,0,4.41-8c1.65-.38,2.36-3.31,4.13-1.64,3.62,3.67-3.45,4.61-3.75,7.8l1.21,0.76c1.85,2,.35,3-0.25,4.91-2.19,2.59-4.54,1.39-7.6,3.14l0.55,0.91c-1.67,1.77-3.17,2.81-5.11,1.87-1.83-3.4,1.64-4.89,3.24-7C249.16,189.84,252.25,191.21,251.24,188.32Zm3.12-22.57c0.73,0.17,1.88.6,1.77,1.67-0.51.81-1,1.62-2.08,1.52-0.73-.18-1.8-0.28-1.7-1.34A2.27,2.27,0,0,1,254.36,165.75Zm11.38,5.7a3.44,3.44,0,0,1,0,3.12c-0.94,2-3.32,2.15-5.34.89L260,173.8C261.85,172.69,262.82,169.35,265.73,171.45Zm0.79,24.45a3.58,3.58,0,0,1-1.85,2.51,2.35,2.35,0,0,1-3.09-1.37c0.43-1.14,1.19-2.36,2.58-2.33C265.3,195.14,266.14,194.25,266.52,195.89Zm4.86-6c-0.28,1.8-3.06,1.75-4.05,2l-0.38-1.65C267.23,188.45,270.44,187.36,271.38,189.91Zm1.15-35.64c0-5.9,5.45-11,4.74-17a7.89,7.89,0,0,1-2.84-1.77c0.43-1.14,2.08-1.52,3.07-1.75,1.67-1.77,4.92-4.26,3.9-7.14,0.63-3.27-1.9-3.73-3.5-6.13,0.28-1.8,1.57-.71,2.89-1,0.76-1.22,2.66-2,4-2.31,2.1-2.91,3.37-.43,5.92-1.37,1.55,0.68,2.33,2.59.91,4-1,.23-2.88,1-3.85-0.15-2.58,2.33-.93,6.46-0.91,9.58-0.2,2.13-1.87,3.9-.76,5.72a203,203,0,0,0-10.59,23.26c-2.31.53-5.12,1.87-5.47-1.17C270.44,155.79,270.57,153.33,272.52,154.27Zm21.93,24.43c0.63,1.24.13,2.05,0.43,3.37-5,2.2-4,9.93-10,11-1.47-.36-2.77-1.44-2.15-3.32,1.65-.38,2.74-1.67,3.8-1.57-0.46-2,3-2.08,1.22-3.75C288.43,181.12,291.19,178.06,294.46,178.7Zm-21.15,4.53c0-1.72,3-3.47,3.21-1.08-0.1,1.06-.78,2.61-2.58,2.33Zm3.8,16.47c1.17-1,3.32-2.15,4.69-.74,1.49,3.47-3.09,3.14-4,5.09a11.2,11.2,0,0,1-6,6.95c-1.57.71-2-1.27-2-2.66-0.05-1.72,2.25-2.25,2.61-3.72C273.53,202.26,276.32,202.3,277.1,199.7Zm-36.81,49.42c1-1.61,2.05-.12,2.61.79,0,1.72-2.41,1.59-2,3.57a3.08,3.08,0,0,1-4,.91c-1-1.17-.2-2.38.64-3.27C238.8,250.16,240.42,251.17,240.29,249.12Zm8.51-21.73c1-3,4.64-2.46,6.54-3.24,4.79-1.8,8.15-6.74,12.39-9.45,1-.23.88,0.84,0.63,1.24,3.11,4.48-1.87,8.41-3.83,12-2.86,4.13-2.25,11.28-8.26,12.31-3.65-2.28,2.38-4.71,2.68-7.9,0.61-1.87-1.57-3.8-.48-5.09l-0.33.07a1.45,1.45,0,0,0-1,1.63c-1.73,0-2.34,1.92-3.58,2.56-2.81,1.34-6.36,2.51-9.12,1.06-1.82,1.12-3.06,1.75-5,.81l0.86-2.28c1.67-1.77,1.64-.38,3.55-1.16,2.59-2.33,4.31,2.12,6.18-1.78Zm35-7.73c-3,2.08-2.23,5.38-4.15,7.56l0.55,0.91c-3.2,8.71-12.26,11.5-14.72,20.39a5.22,5.22,0,0,1-4.23,2.71l0.82,0.51c-3,2.07-6,4.15-8.09,7.07l0.48,0.58c-0.86,2.27-2.69,3.39-4.51,4.5-2.51,7.17-8.74,7.22-14.29,10.24a56.17,56.17,0,0,1-8.79,5.5c-3.22,1.09-4.44,4.84-7.88,4.94-3.42-1.29-4.81,3.19-8.11,4-2.55.93-7.49,2.07-10.08-.1l-0.25.4c0.15,0.66.05,1.72,0.79,1.9a13.25,13.25,0,0,1-11.53,2.66c0.25-.4.76-1.22-0.31-1.32,1.7-3.17,4.26-4.1,7.63-4.53,3.06,2.76,3.73-1.9,6.91-1.59,0.71,1.57,2.23-.86,3-0.36,0.25-.4.58-0.47,0.5-0.81l10.87-2.51c1.19-2.36,3.37-4.94,6.74-5.38,1.12-2.69,6-1,6.24-4.56,5.75-5.15,13.09-7.88,17.8-14.51,1.52-6.94,8.47-9.93,13.68-12.87,3.93-4,6.49-9.48,10-13.76,0.58-5,4.91-8.76,7-13.07,1.49-1,2.33-1.93,4-.91A2.08,2.08,0,0,1,283.79,219.65Zm-46.31-14.29a2.07,2.07,0,0,1,.13,2.05c-2.74,1.67-2.13,4.31-5.42,5.06-0.74-.17-3,0.69-3.35-1l0.35-1.47C231,207.22,234.52,206.05,237.48,205.37Zm-10.92-3.72c-0.91.55-2.89,1-3.6-.56,0.38-2.87,3.12-4.53,5.09-5a2.47,2.47,0,0,1,2.76,1.44C230.28,199.75,228.46,200.86,226.56,201.64ZM216.5,236.22c-0.53-2.31,3.52-4.28,4.71-2.13,0.3,1.32-.13,2.46-1.44,2.76C218.71,236.75,217.06,237.13,216.5,236.22Zm2.67,11.53c1.72,0,3.75,1.22,4.53-1.39,1.49-1,3-2.08,4.36-.66l0.58-.48c-0.32-4.44,4.54-5.9,7.46-8.31,0.81,0.51.3,1.32,0,1.72-4.71,2.12-4.82,7.7-8.64,10.67-0.43,1.14-2.71.28-2.65,2-7,4.38-13.55,10.41-22.09,11-7.07,5.44-15.76,5.37-23.21,9.17-1.72.05-3.7,0.51-4.48-1.39,1-1.62,3.32-2.15,5-2.21,2.46-4.38,8.92-3.45,13-3.7l4.91-4.26c2.16-1.19,4.79-1.8,6.21-3.17C210.75,254.9,213.64,249.37,219.17,247.75Zm-37.52,38.83c-1.39,0-3.09-1.37-3-2.43l-0.91.56a7.08,7.08,0,0,0-6.89.2c-2.82,5.85-8.87,5.17-14.5,7.85-0.9.56-4,2.31-4.84,0.08,0.2-2.13,2.54-4.06,3.62-5.35,0.35-6,6.69-2.58,9.68-4.66,4.92-8.77,13.3-1,20.9-4.13,3.8-1.57,9.5-3.93,13.68-3.85,2.76-3.07,7.19-3.4,10.41-4.49,4.15-3,8-6,13.58-7.29,3.55-1.17,5.74-5.14,10.67-4.89a2.26,2.26,0,0,1-.38,2.86c-5.14,3.27-9.85,5.4-14.45,9.58-4.37,2.05-9.14,2.46-12.48,6-5.17.15-10.26,5.14-16.06,4.06C186.33,281.34,185.44,285,181.65,286.59Zm2.81,7.68a31.86,31.86,0,0,0-6.23,4.56c-1.65.38-2.1-1.59-2.76-1.44-1.06-4.61,3.9-2.64,6.23-4.56C182.76,292.92,184.81,292.79,184.45,294.26ZM140,303.13c-1.88-.61-4.33-0.74-5.19-3-0.38-1.65,1.27-2,2.25-2.25,2.63-.61,3.17,1.7,4.87,3C142.25,302.27,140.67,303,140,303.13Zm-22.22-4.59c-0.66.15-1.8-.28-1.62-1a1.76,1.76,0,0,1,2.64-.61ZM85.48,281.72c-1.55-.68-3.78.18-4.31-2.12,0.1-1.07,1.82-1.12,2.07-1.52,2.38-.21,5.5-0.23,6.94,1.52l0.84-.89c2.21,0.53,6-1,6.69,1.92C94.85,284.76,89.68,280.4,85.48,281.72ZM119.55,252a2,2,0,0,1-2.86-.39,1.48,1.48,0,0,1,1.67-1.76C119.43,250,120.39,251.12,119.55,252Zm31.29-34.28a6.55,6.55,0,0,1-6.79-.86c0.89-3.67,6.13-3.5,8.9-2.05C153.25,216.13,151.75,217.17,150.84,217.73Zm-0.4,8.76c-0.84.89-2.41,1.6-3.29,0.76-1-1.49-2.13-.2-3.37.43-0.49-.58.1-1.06,0.35-1.47,1.22,0.76,1.9-.78,2.89-1C147.9,226,151.14,223.55,150.44,226.49Zm-17.46-5c-1.69-1.34-5-.58-6.56.13a2.85,2.85,0,0,1-2.33-2.58c-0.38-1.65,1.37-3.09,3.09-3.14,2-.13,5.42-0.56,6.36,2,2.41-1.6,6.36-2.51,8.79-1C142.51,220.69,136.86,220.26,133,221.5Zm6.82,8.49c-1.39,0-3.85-.15-4.41-1.06-0.61-2.64,3.82-3,4.86-1.47C140.91,227.3,141.11,229.69,139.79,230Zm-27.49,1.14c-1.72.05-3.12,0-2.66-2.51,2.33-1.93,4.69-.74,7.07-0.93,0.94-2,4.3-2.38,6.61-2.91,1.39,0,4.11-.25,4.64,2.05C127.89,235.51,116.84,229.73,112.31,231.13ZM246.81,116.5c2.58-2.33,2.15-5.7,4.33-8.28-1.8-.28-1.35-2.81-0.91-4,0.13-2.46,2.38-4.71,5-5.32,0.1-1.06-.3-1.31-0.61-2.63,0.71-2.94,3.68-3.63,6-2.43,3.14,3.09-2.86,4.13-2.25,6.76-1.85,2.51-2.08,6-4.74,8-0.25.4-.1,1.06,0.23,1-1.09,1.29-.08,4.18-2.13,4.31l0.15,0.66c0.61,2.64-.93,6.46-3,9.37-4.46,1.72-3.27,8.39-8.28,9.2L240,132ZM263,84.32c1.14,0.43,1.72-.05,2.36,1.19-0.88,3.67-2.71.28-4.08,3.37a1.24,1.24,0,0,1-1.62-1C259.58,86.15,261.4,85,263,84.32ZM233.44,45a12.28,12.28,0,0,1-1,3,3.37,3.37,0,0,0-.36-3L229,46.73c-1.8-.28-3.6-0.56-3.73-2.61,1-1.62,1.39-4.48,4.18-4.43A4.36,4.36,0,0,1,233.31,43C234.19,43.79,232.29,44.57,233.44,45Zm-4.11,22.8c-0.25.4-.83,0.88-1.31,0.3-0.56-.91.43-1.14,1-1.62C229.43,66.74,229.91,67.32,229.32,67.81Zm-6,23.58c-1.47-.36-2.48,1.27-3.93-0.48-0.2-2.38,2.46-4.38,4.61-5.57,1.06,0.1.81,0.51,1.62,1A5.74,5.74,0,0,1,223.32,91.39ZM217,102.92c1,1.49-.3,3.19-1.14,4.08,2.3,4-4.48,7.63-6,11.45-4.1,4.76-3.42,12.24-9.7,15.07-2.49,1.27-2.06,4.63-4.86,6a2.79,2.79,0,0,1-4,.59c-1-1.5.15-3.85,0.51-5.32a5.51,5.51,0,0,1,4.79-1.8c-0.53-2.3.81-4,1.67-6.28,5.29-2.61,6-8.66,8.84-12.79,1.59-2.1,4.06-2,3.22-5.6-0.25-4.1,5.57-4.41,2.94-8.31,0.93-2,2.86-4.13,4.91-4.26s1.7,1.34,2.74,2.84C220.94,100.61,219.27,102.39,217,102.92ZM190.36,159c-5.58,4.41-9.48,11.55-17.13,13a81.31,81.31,0,0,1-20.8,7.58c-9.14,2.46-17.71-.07-26.09,1.16-2.33-2.58-7-.45-9.81-1.9,0.08,0.33-.17.74-0.1,1.07l-7.19-1.12c-1.9.79-4.87,1.47-6.82,0.53-2.78-4.56,4.84-4.58,4.51-9-2.28-5.37-8.46-3.6-12.72-4-3.14-3.09-10.89-.61-10.94-6.84-1.83-3.39-5.7-2.15-8.9-2.45-1.21-5.27-9.75-4.69-9.32-10.34,5.42-.56,8.92,5.57,14.26,4.68,3.09,1.37,6.58,3,10,2.89,2.49,3.24,5.83,4.21,9.4,6.15,2,0.94,3.62-.83,4-2.3,2.21-4-3.11-4.48-4.13-7.37-0.76-3.29,3.67-3.62,5.25-4.33,0.53-2.21,1.49-5.55,4.36-5.17,4.63,2.05,9.39,1.65,13.7,3.78,6.11-2.1,11.65-.61,16.52-2.08,5.27-5.72,10.94-6.69,18.24-6.63,1.34-1.7,4-2.31,5.8-3.42,4.54-1.39,7.19-7.9,12.34-6.66,1,1.49-.56,3.6-1.65,4.89-4.61,5.58-13.6,8.69-19,9.25-6.11,2.1-11,8.08-17.94,7.95-8.08,2.56-18.19-.66-26.85-2.13a5.89,5.89,0,0,0-2.31,5c2.86,0.38,4.76,4.1,8,3,1.77,1.67,3.69-.51,5.8,1.09,4.76-.4,9.17.66,13.88-1.47,7.61,1.37,14.8-2,20.93-5.52,1-.23,3.19.3,3.09,1.37-0.76,5.73-7,5.78-10.72,7.68-8.11-.56-14.14,1.87-22.14.25-2.89,1-7.33,1.34-10.41,0-1.54-.69-2.81-3.17-4.53-3.12-0.76,1.22-3,2.08-4,3.7-1.49,1,.5,3.7-1.63,3.5,16.67,7.6,34.79,3.42,51.74.21,5-.81,7.55-4.86,12.64-5.35,0.68-1.55,2.91-2.41,4.64-2.46,2.3-5,9.28-4.91,11.65-9.62,0.66-.15,2.2.53,1.37,1.42-3.88,5.75-8.65,10.67-16,12-3.37,4.94-9.15,7-14.67,8.59-4.64,2.46-13.68,3.85-19.1,4.4-6.89.21-15.51,0.46-21.87-1.55-1.65.38-3.52-.23-3.14,1.42l-1.19,2.36,5.78,2.49c5.15,1.24,10.31,1.09,15.81.86a7.05,7.05,0,0,0,4.51,0c3.85,0.15,7.24-1.67,10.91-.79,3.45-.1,6-2.43,9.3-1.8l5.36-2.28c4.74-3.52,10.29-2,14.8-6.54,5-2.53,7.8-9.78,14.29-10.23C192.14,156.17,191.12,157.79,190.36,159ZM94.91,173.75c-2.19,2.59-6.64-.2-9.2.74-2.38.2-4.3-2.13-6.61-1.6-3-2.43-5.5-4.28-8.9-7-0.91.55-1,.23-1.54-0.68-4.79,1.8-8.8-3.53-12.21-4.82l-1.8-4.79-0.66.15c1.3-3.42-3.22-7.93-.53-11.32l-4.54-3.12c0.11-1.06.91-.56,1.49-1,3.5,1.62,8.18.89,10.41,4.54-0.84.89-1.34,1.7-2.73,1.67-1.17,1-1,3-.74,4.33,1.22,0.76-1.19,2.36,1.19,2.15-0.38,2.87,3.17,1.7,3.44,4.41,2.68,1.11,5.75,3.87,9.47,2,4.29-1,2.61,5.29,4.72,6.89,2.71-.28,4.89,1.64,6.92,2.91l10.79,1.67C94.7,171.36,96.4,172.71,94.91,173.75Zm-31.27,1.32c-2.08,1.52-4.43.33-6.89,0.2-3.11,0-5.62-1.82-7.47-3.82-0.56-.91-1-2.89.63-3.27,1.47,0.36,3.27.64,4,2.21,1.31-.3,2.36,1.19,3.52.23l-0.23-1c1.24-.64,3.14-1.42,3.85.15-0.41-.25-0.66.15-0.91,0.56C61.23,172.15,64.1,172.53,63.64,175.06Zm35.72-34.61a1,1,0,0,1-.61,1.88,2.79,2.79,0,0,1-2-1.27A1.75,1.75,0,0,1,99.37,140.46Zm80-26.09c3.39-1.83,2.84-7.24,5.12-10.9,0.48-3.93,5.68-5.47,4.43-9.35,0.36-1.47,1.15-4.08,2.79-4.46a3.87,3.87,0,0,1,2.91,2.1c-0.84.89,0,2.79-1.62,3.5,1.19,2.15-.84,5.4-2.11,7.42-0.53,6.72-6.2,12.19-9.19,18.77-1.35,1.7-3.24,2.49-4.79,1.8C175.16,120.19,177.52,116.88,179.37,114.37Zm7.93-61.84L187,51.21l0.33-.08C188.06,51.31,188.37,52.63,187.3,52.53Zm-1.72,4.56c-0.73-.17-2.28-0.86-2.18-1.92-0.53-2.31,2.84-2.74,3.88-1.24C188.64,55.34,187.3,57,185.58,57.08Zm8.34,28.61c1.21,0.76,2.23-.87,2.69,1.11-0.1,1.06-.13,2.45-1.44,2.76-1.24.63-2.87-.38-3.5-1.62A11.62,11.62,0,0,1,193.91,85.69Zm3.75-7.81c0.73,0.18,1.19,2.15,1,2.89-0.51.81-2.48,1.27-2.63,0.61C194.5,80.7,195.15,76,197.66,77.88Zm1-48.11c2.86,0.38.61,2.63,0.66,4.36a1.49,1.49,0,0,1-2.28-.86C196.85,32.29,197.31,29.75,198.7,29.78Zm2.84,33.34a1.59,1.59,0,0,1,2-.13c1.37,1.42.11,3.44-.07,4.18s-1.5,1-1.32.31c-0.81-.51-0.23-1-1.12-1.83C202.07,65.42,201.77,64.1,201.54,63.11ZM209,81.86l-1.62-1a2.45,2.45,0,0,1,3.57-2.56c1.3,1.09,1.17,3.55-.15,3.85,1.49,3.47-.18,5.25-3.55,5.67,0.56,0.91,1.22.76,2.36,1.19a10.49,10.49,0,0,1-3.14,5.93c-0.48,3.92-1.47,8.66-4.23,11.73-4.38,2.05-3.14,5.93-4.35,9.68-6.24,4.56-6.62,11.93-11.63,17.25-5.67,5.47-10.66,13.91-18.69,13.68a2,2,0,0,1-1.35-2.81c6.87-3.32,11.63-8.23,16.06-13.07,4.28-1,4.05-6.48,6.41-9.8,1.62-3.5,4.68-5.25,6.31-8.74-1.37-5.92,7.12-8.23,6.74-14.39,1-3-.1-8,3.22-10.11C203.26,85.61,208.21,84.47,209,81.86Zm4-41.5A3.38,3.38,0,0,1,215.17,44c-0.94,1.95-2.15,1.19-3.77.17C212.16,43,211.37,41.07,212.94,40.36Zm4,17.46c-1.75,1.44-2.54-.45-4-0.81-1.85-2,2-3.57,3.65-2.23C217.09,55.36,218.38,56.45,217,57.82Zm1,6a7.25,7.25,0,0,1-4.51,4.51c-0.33.07-2.05,0.13-2-.94,1.52-2.43,1.47-8.66,5.78-6.53C218.54,61.62,217.12,63,218,63.83ZM43.73,156.41c-0.74-.18-2.46-0.13-2.43-1.52,0.14-2.46,2.94-3.8,4.82-3.19C49.83,154.31,44.09,154.95,43.73,156.41Zm-4.81,12.21c-1.49,1-2.4,1.59-4.28,1-0.41-.25-0.91.56-0.43,1.14L31,169.05c-1.92-2.33.93-2,.15-3.84l0.84-.89c2.78,0.05,8.86-5.17,10.81.28C43,167,39.85,166.67,38.91,168.63ZM44.67,150l-0.84.89-0.15-.66ZM31.11,110.76c-3.19-4.82-10.05-1.5-11.14-9.22C18.35,96,26.08,99.44,25.52,94a2.26,2.26,0,0,1,3.4-1.83,3.17,3.17,0,0,1,1.5,3.47c-0.92.56-2.26,2.25-3.29,0.76-5.09.48,1.85,2-.33,4.59,2.1,1.59.59,4,2.71,4.23,0.86,2.23,3.65,2.28,3.85,4.66,2.45,0.13,4.71,2.38,5.67,3.55-0.13,2.46-2.28,3.65-4.25,4.1-2.38.2-4.08-1.14-5.75-3.88C28.79,112.69,30.2,111.32,31.11,110.76ZM20.62,142c1.85,2-2,3.25-.51,5.32l-1.65.38c-1.62-1-2.15-3.31-2.45-4.63,1.93-2.18,2.84-7.24,6-8.67,1.06,0.1,2.71-.28,2.68,1.12A8.59,8.59,0,0,1,20.62,142ZM27.41,79.7c1.91-.79,2.69,1.11,3.65,2.28,0.48,0.58-.12,2.46-1.44,2.76-2.31.53-2.72,0.28-4.57-1.72A3,3,0,0,1,27.41,79.7ZM37,85.12c2.35,1.19,6.33,3.4,6.92,7.42,0.3,1.32-.76,1.22-1.34,1.7A1.78,1.78,0,0,1,42.84,97c-1.09,1.3-3.47,1.49-5,.81-1.16-3.55-3.07-7.27-3.42-10.31C36.13,87.41,34.87,84.92,37,85.12Zm-1.62-10c0.84-.89,1.52-2.44,2.43-3,2.85,1.77-1.37,3.09-1.31,4.81-0.91.56-1.4,0-1.88-.61Zm142.94-60c-1.17,1-2.59,2.33-4.13,1.65-1.14-.43-1.17,1-1.34,1.7L174,18.83c-2.66,2,.61,2.63.66,4.36A4.46,4.46,0,0,1,172,26.91c-1.72.05-3.62,0.84-4.16-1.47-0.63-1.24.46-2.54,1.37-3.09,2.25-2.25-.33-4.44.53-6.71a2.53,2.53,0,0,1-2.25-2.25,6.32,6.32,0,0,1,2.71-4.79c1.87,0.61,3.42,1.29,4.45,2.79a2.84,2.84,0,0,0,3.65,2.28C178.49,14.32,178.89,14.57,178.31,15.06ZM174.2,46.88a4.27,4.27,0,0,1-3.88,1.24c-1.8-.28-1.19-2.15-2.08-3,0.43-1.14.3-3.19,2.1-2.91l-1.19-2.15c0-1.39,0-3.12-.08-4.84-0.1-3.44,3.09-3.14,5.22-2.94,0.13,2.05.51,3.7-2.05,4.64,0.38,1.65,1.14.43,1.62,1a4.31,4.31,0,0,1-.81,4C172.2,44.22,175.73,44.44,174.2,46.88ZM173,79.41c-2,1.85-3.24,2.48-4.76,4.91-0.18.74,0,1.72-.79,2.61-0.23,8-5.12,15.4-8,22.65L139,122.65,123.07,126c-5.37-2.23-10-2.56-15-3.47-1.87-.61-2.81-3.17-5.11-2.64-2.16-3.32-8.29-4.33-6.31-9.3,0-3.12,2.92-2.41,4.21-1.32s2.74,2.84,2.71,4.23c5.26,3.29,11.29,5.37,17.25,7.12l10.11-1.29c8.43-4,19.43-9,26.54-17.23l-0.4-.26c1.09-1.29,1.14-4.07,3.11-4.53-0.41-.25-0.15-0.66-0.56-0.91,4.33-3.77.61-10.89,6.56-13.66-1.92-2.33,2.36-3.31.18-5.24,1.95-3.57,1.19-6.86.35-10.49,0.05-2.79.1-5.58,3.87-5.75,0.74,0.18,2.13.2,2.43,1.52A9.22,9.22,0,0,1,171,67.4c-0.3,3.19,3.35,5.47.18,8.28C171.62,76.26,174.71,77.63,173,79.41ZM95.49,105.62c-0.94,2-2.71.28-4.05,2-3.8,1.57-3.44-4.41-5.87-5.93-2.18-1.93-5.88-1.42-8.19-.89-1.14-.43-2.43-1.52-2.07-3,4.3-2.38,1.36-7.6,5.75-9.65,2.38-.21,3.82,1.54,4.61,3.44,3.52,0.23,6.08,3.8,6.11,6.91C92.88,100.33,97.19,102.45,95.49,105.62ZM81.13,74.94c1.26-2,2.25,2.25,3.12,0l1,1.17c-1.09,1.3,1.52,2.08,1.16,3.55A2.3,2.3,0,0,1,84,81.55c-3,.68-2.33-2.58-3.78-4.33Zm4.64-29.51c0.51-.81.3-3.19,1.85-2.51,0.91-.56-0.23-1-0.37-1.65,0.78-2.61,3-3.47,5.16-4.66a1.41,1.41,0,0,1,1.29,1.09c0.63,1.25-1.27,2-2.07,1.52,0.23,1,.38,1.65-0.54,2.21L91.8,47.5,91,48.39c4.31,2.13,1.35,7.33,3,10.06,1.19,2.15,4.28,3.52,3.16,6.2-2.21-.53-4.15-1.47-6-2.08,1.37,1.42-1.44,2.76.58,4A1.75,1.75,0,0,1,89,68.28c-2-1.26-3.8-2.94-4-5.32,0.35-1.47,1.14-4.07,2.13-4.3A37.21,37.21,0,0,0,85.76,45.43Zm21.91,43.86c2.68,5.62,10.52,3.47,15.07,5.19,1.9-.79,2.76-3.06,5.38-2.28,3.85-4.36,11-7.75,9.93-14.08-0.55-5.42,5.3-11.63.46-16.06-6.64-.2-4.81,7.7-8.57,11-1.82,5.62-4.3,11.4-10.3,12.43-0.91-4,2.89-5.52,4.76-9.42,2.65-2,2.81-5.85,5.07-8.11-2.26-2.25,1.9-5.29,2.6-8.23,2.66-6.51-8.58-5.65-4.94-12.39-1.48-.36-0.79-1.9-1.59-2.4,0.1-1.06.55-3.6,2.69-3.4a3.57,3.57,0,0,1,2.5,1.85c0.05,1.72,1,4.28-.58,5a5.17,5.17,0,0,1,2.08,3c4.43-.33,4,5.32,8.18,5.39,5.55-3-1.34-7.32.86-11.3,0.43-1.14,3.14-1.42,2.76-3.06l0.66-.15c1.14,0.43,1.37,1.42,1.67,2.74,0.08,4.84-1.17,10,.12,15.58-3.24,11.5-2.56,23.48-11.76,33.24-2,1.85-5.95,2.76-9.06,2.79a6.43,6.43,0,0,1-3.9,2.63c-3.67-.89-8.76-0.4-11.17-3.32-3.19-.3-7.75-2-8.84-5.25C99,89.2,99.24,88.8,95.87,89.23c-1.62-1-2.86-.38-3.55-3.35l0.81,0.51c0.18-.74-0.89-0.84-1-1.5a4.73,4.73,0,0,0,1.09-1.29c1,1.49,2.81-1.34,4,.81C102.13,83.28,103.82,89.13,107.67,89.29ZM98.94,69.44c0.18-.74.69-1.54,1.57-0.71,1.14,0.43,1.6,2.41,1.75,3.06,3.09,1.37,6.78.86,10.38,1.42,2-.46,2.43-3,4.24-2.71A2.61,2.61,0,0,1,119,67.6c-1.6-2.41,1.34-1.7,1.69-3.17-1.74-3.06,2.28-3.65,3.3-5.27,1.7,1.34-.64,3.27.48,5.1-2,.45-1.69,3.17-2.86,4.13a28.72,28.72,0,0,1-4.82,7.7C113.6,78.9,110,78.34,106,77.53c-1.6-2.4-4.21,1.32-5.95-1.75-1-1.16-2-4.05-.16-5.17ZM102,43.76c1.07,0.1,2.61.79,2.58,2.18l-1.24.63c0.35,3,3.37,4.08,2.66,7-0.84.89-1.72,0.05-2.63,0.61l-4.23-6.31C98.45,46.31,100.3,43.8,102,43.76ZM113.89,32c-0.28,1.8,2.23,3.65-.25,4.91-1.79-.28-4.58-0.33-5.2-3C107.52,30,112.59,30.91,113.89,32Zm5.55,15c0,1.39-.82,4-2.94,3.8-0.64-1.24-3.9-1.87-3.37-4.08a3.67,3.67,0,0,1,3.42-3.22C118.6,43.4,119.54,46,119.43,47Zm11.7-30.45c1.62,1,1.19,2.16-.23,3.52-2,1.85-2.87-.38-3.82-1.55C126.63,16.57,129.59,15.89,131.14,16.57Zm7.09,6.69c0.86,2.23,5.22,1.57,4.26,4.91a1.41,1.41,0,0,0,2.13.2l0.78,1.9c-2.66,2,1.42,3.14-.43,5.65-2.71.28-.28,1.8-1.37,3.09l-2.36-1.19c-0.71-1.57-1.5-3.47-.15-5.17l-0.81-.51c-0.81-.51.44-1.14,0.28-1.8-2.46-.13-1.75-3.06-3.78-4.33C136.63,25.36,136.51,23.31,138.23,23.26Zm11.3,59.48c4.92-4.25-1.39-9,2.71-13.81a6.6,6.6,0,0,1,.25-4.91c0.15-3.85,1.34-6.21,1.17-10,0.45-2.53-3-6.94,1.29-7.93,1.7,1.34,3.8,2.94,3,5.55,1.2,2.15-.58,5,0.76,7.8,0.23,1-1.09,1.29-.46,2.53-6,4.16.88,9.85-2.74,15.2,1.65,4.13,2.36,5.7.3,10.34-2.81,1.34-3.11,4.53-3.72,6.41-5.19,6.05-9.32,12.21-16.84,15.68-4.13,1.65-8.65,1.65-12.69,3.62-5.22-1.57-9-2.79-14.45-4,0.79-2.61-2.53-.46-2.4-2.92a3.27,3.27,0,0,1,2.1-2.91c1-.23,3.12,0,3.5,1.62,4.86-1.47,10.13,1.82,15.05,2.07,8.43-4,15.6-10.54,21.64-17.48a0.33,0.33,0,0,0-.4-0.25C146.59,86.55,151.86,85.33,149.53,82.75Zm6.79-71.29c0,3.12,2.2.53,3.42,1.29,3.57,2,1.88,5.12.84,8.14-0.86,2.28,1.32,4.21-.76,5.72l1.55,0.68c1.62,1,.1,3.45-0.91,5.07-1.24.64-3.14,1.42-4.18-.08-1.34-2.81-1.19-6.66-.73-9.2,0-2.78-.56-5.42.37-7.37-1.62-1-3.49-1.62-3.37-4.08C153.61,11.74,155.43,10.62,156.32,11.46ZM171,60.1c-1.55-.68-3.42-1.29-4.05-2.53,0.1-1.06,1-3,2.76-3.06a3.33,3.33,0,0,1,2.83,1.78C172.13,57.42,173.8,60.15,171,60.1Zm93.46-3.87c1.22,0.76,3.77-.17,4.23,1.8,0.06,1.72-1.42,1.37-2.25,2.25-1.8-.28-3.19-0.3-3.65-2.27C263,57.27,263.41,56.13,264.47,56.23Zm36.75,111.19c0.56,0.91-.13,2.46-0.63,3.27-1.49,1-2.89,1-3.75-1.22C297.45,167.6,299.6,166.4,301.22,167.42ZM152.36,305c0-5.52,7.31-1.39,10.06-.19,1-.05,2-0.09,2.94-0.15l0,0a10.1,10.1,0,0,1,3.84-.28c1.71-.16,3.42-0.31,5.13-0.53,4.62-.6,9.14-1.42,13.6-2.41a2.37,2.37,0,0,1,1.89-.41A150.08,150.08,0,0,0,300.23,193.16a31.46,31.46,0,0,0-4.15,4.58c-2.08,1.53-3.09-1.36-3.8-2.94a7.85,7.85,0,0,1,5.58-4.4c0.28-1.8,3.21-1.09,2.1-2.92,1.32-1.21,1.69-2.66,2.47-4A149.35,149.35,0,0,0,304.86,146a22.53,22.53,0,0,1-2.39,2.72c-0.51.81-2.09,1.52-2.39,0.2a21.58,21.58,0,0,1,4-6.82c-1.47-.35-1.75,1.45-3.8,1.57-4.13,1.65-.35,6-4.26,8.62a3.55,3.55,0,0,1-4.28,1,3.79,3.79,0,0,1,0-4.51c1.37-3.09,5.62-2.68,6.18-6.28-5,.81-1.22-5.27-2.33-7.09,1-1.62,3.73-1.9,5.35-.89a4,4,0,0,0,2.76-.32q-0.54-3.89-1.28-7.69c-2.29,2-5,5.43-6.93.95-0.64-1.24-1.57-3.8.4-4.25a1.51,1.51,0,0,1,1.7,1.34c1.4-.32,3.07-0.2,4.23-0.91-0.34-1.57-.68-3.14-1.07-4.69a4.15,4.15,0,0,1-.35-0.25A2.49,2.49,0,0,1,300,116a149.75,149.75,0,0,0-4.83-14.89c-3.85,1-4,6.3-5.61,9.66-0.58.48-1.42,1.37-2.3,0.53-1-1.17-1.06-4.61-3.55-3.34-1.62-1-5.25-.18-5.85-2.82l-3.32-2.36c-3.42,3.22-3.11,9-8,10.52-0.89,3.67-3.83,7.47-3.47,10.51,0.63,1.24,2.89-1,3,1l1.7,1.35c-0.59.48,0.07,0.32,0.23,1,0.19,2.38-3,5.2-.05,7.3l4.81,1.32c-0.13,2.46-3.35,3.55-3.14,5.93-3.55,1.17-2.34,6.44-5.32,8.52-2.15,1.19-5.52,1.62-6.64,4.3-4.61,1.06-1.34,6.21-5.62,7.2-5.28-3.29-8,10.51-11.78,3.06-2.13-.2-0.84-3.62-1.47-4.86,1.34-1.7,3.07-1.75,5-2.21,0.48,0.58,1,1.17,1.62,1,1.72,0,2.25-2.25,2.61-3.72,2.07-1.52,4.33-3.77,6.38-3.9,3.29-5.27,12.71-9.52,8-16.42l-1.14-.43c-3.32,2.15-5.78,6.54-9.78,5.72-2.2-.53-1.67-2.73-1-4.28,5.27-5.73,4.91-13.28,10.11-19.33,0.33-4.58,1.64-9.4,5-12.94l2.88-1c-0.75-3.29,2.08-6,3.12-9-1.57-3.8,1.85-7,.61-10.89-3.47-3-10.1-3.22-9.59-8.54,1.84-2.51,5.17-.15,7.22-0.28,0.65-.15.42-1.14,1-1.62-1.79-.28-0.45-2-0.35-3,1-1.62,2.81-1.34,4.21-1.32a6.24,6.24,0,0,0,3.41,1.44,150.52,150.52,0,0,0-38.59-38.11l0,0c0.13,2.05-2,3.25-4.08,3.37-0.91.55-2.18-1.93-2.81-3.17l-0.91.56c-1.21-.76-2.68-1.12-3-2.43-0.49-2.1,2.38-2.12,2.84-3.41a149.67,149.67,0,0,0-22.39-10.94c-1.87,1.06-3.85,2.8-5.81,2.16-1.39,0-2.11-1.59-2.08-3-2.89,1-4.26-.4-7.15.61-4.53,1.39-2.76,7.57-5.34,9.9-0.74-.18-1.65.38-1.49,1l-3.17-1.7c0.18-.74,1.62-3.5,1.57-5.22-1-1.49-.84-3.62-2.71-4.23,2.28-6,9-3.38,14.38-3.55a148.89,148.89,0,0,0-47.11-6,2.84,2.84,0,0,1-.48.9,6.62,6.62,0,0,1-5.48-.6c-2.77.2-5.54,0.47-8.33,0.83A149.92,149.92,0,0,0,95.29,17.5a3.36,3.36,0,0,1,.65-0.09c0.89,0.84,1.45,1.75,2.69,1.12,0.71,1.57-.53,2.21-1.37,3.09C93.77,20,95.17,24.53,92,24.22c-0.91.56-.1,1.06,0.31,1.32l-1.93,2.18c-3.24-2-1.45,2.76-4,2.3C84,34.74,77.2,38.39,78.65,44.65c-1.32,4.81-.18,9.75-1.24,14.16,1.06,0.1.78,1.9,0.28,2.71-1.32.31-2.26,2.26-4.13,1.65-3.39-2.69,1.2-6.87-.78-10.92-0.79-1.9-3.67-.89-4.46-2.79-0.18.73-1,1.62-.54,2.21-2.86,4.13-3.24,7-5.85,10.72l0.91,8.46,1.55,0.68c1.41,3.14,5.34,3.62,7.77,5.14,3.5,1.62-1,4.74,1.44,6.26,0,1.39-.05,2.78-2.1,2.91-1.72,0-3.09-1.37-3.8-2.94,0.58-.48.1-1.06,0.35-1.47-5.29-1.9-6.73-8.16-9.12-12.47-3.22-3.42-1.5-8,.38-11.88-0.11-3.44-3.32-6.86-1-10.52,0.43-1.14,2-1.85,2.81-1.34,0.89,0.83,3.09,1.37,2.33,2.58,0.81,0.51,1.45,1.75,2.28.86L65.55,48c2.56-.94,4.38,2.46,7,0.45,3.17-2.81,2.84-7.24,2-10.87,2.18-2.58,1.52-6.94,6-7.27L80.7,31c3.42,1.3,3.09-3.14,6-4.15-1.59-2.41,3.32-2.15,3-4.86,0.69-1.55,1.9-.78,3.3-0.77A2.54,2.54,0,0,1,94.13,18,148.92,148.92,0,0,0,62.51,37.07a1.94,1.94,0,0,1,.76,1.06c0,1.72-1.68,1.77-2.51,2.65a1.58,1.58,0,0,1-1.42-1.13A150.71,150.71,0,0,0,46.83,51.32a22.91,22.91,0,0,0,.72,2.92c1.22,0.76,1.6,2.4,1.57,3.8,1.52,2.08-.51,5.32,1.67,7.24-1.3,3.42,3.59,5.07,4.94,7.88-1.85,2.51.78,6.41-.58,9.5,0.46,2,1.41,3.14,1.47,4.86,2.28,0.86,6.54,1.27,7.63,4.48-1,1.62,1.41,3.14,1.22,5.27-1.59,2.1,2.23,3.65,2.36,5.7-0.51.81,0.31,1.32,1,1.5l0.25-.41a4.7,4.7,0,0,1,2.91,2.1c0.84,3.62,6.13,5.53,5.39,9.86l0.74,0.18c1.57-.71,2.58,2.18,3.72,2.61,0.1-1.07,1.32-.3,2.05-0.13,1.64-.38,3.27.64,4.68-0.73,4.59,0.33,2.23,3.65,5.3,6.41,3.42,1.3,6.36,2,9.35,4.44,6.21,1.34,13,3.93,19.6,3.8,5.88,1.42,10.7-1.77,16.12-2.33,8.13-5.34,15.15-8,23.1-12.62,1.67-1.77,2.86-4.13,3.95-5.42,1.07-4.41,1.5-10.06,5.07-12.62,2-3.25,4.81-7.7,5.3-11.63,3.52-4.28,2-10.87,6.49-14a1.23,1.23,0,0,0-1.12-1.83A9.24,9.24,0,0,1,183,65.65c0.76-1.21,2.67-2,3.63-.84,1.85,2-1.27,2,.17,3.78-1.52,2.43,1,4.28,1,7.4s-3.42,3.22-5,5.32c1.11,1.83-.33,4.59-1,6.13l0.22,1c-3,5.19-3.57,11.58-8.08,16.09,0.86,2.23.07,4.84-2.76,7.58-0.25,4.91-4.28,10-8.52,12.72-3.34,3.55-9.35.07-11.57,5.44-1.67,1.77-5.27,1.22-7-.46-7.58,6.26-17.41,10.26-28.22,5.47-5-.58-9.93.56-12.8-4.33-3.12,0-5.73,3.75-7.8.76,1.87-3.9-3.27-.64-4.13-2.86-3.17-1.7-7.65-3.09-8-7.52-1.17,1-2.38.2-4.1,0.25-1.16-3.55-7.24-2.84-9.3-7.22-0.48-.59-3.09-1.37-4.1.25a0.65,0.65,0,0,0,.55.92l0.33-.08L68,124.8c0.35,3,4.89,1.64,5.32,5-1.12,2.68,1.39,4.54,1.5,8,5.92-1.37,9.6,4,15.42,3.72,1.45,1.75,1.75,3.06.56,5.42-1,1.62-4.29,1-6.51,1.85a18.44,18.44,0,0,0-10.94-6.84c-6.16.38-10.24-5.27-15.45-6.84-1.21-.76-5.88-1.42-6.91-2.91-1.47-.36-3-1-4.59-0.33,0.08,0.33.4,0.25,0.48,0.58l-4.2,1.32c-2.36-1.19-3,2.08-5.55,3-2.89-3.5-3.49,2.89-7-.13a2.08,2.08,0,0,1-.43-3.37C32.2,132,31.9,126.19,35.9,127c0.61,2.63,5.45,2.56,4.34,5.24,1-1.62,3.49-2.89,2-5,0.93-2,2.12-4.31,5.16-4.66,3.92,0.48,6.08,3.8,7.83,6.86l8.36,4.66c0.73,0.18,2.28.86,2.45,0.13-1.62-5.52-.15-9.68-4.33-14.27-1.65.38-3.2-.3-4.82-1.32-0.71-1.57-2-4.05.25-4.91-0.63-1.24-2.61-.78-3.42-1.3-0.45-2-2.83-1.77-4.13-2.86-1.95-.93-4.7-2.38-3.85-4.66,0.43-1.14,1.6-2.1,2.81-1.34-1.16,1,.64,1.24.79,1.9,3.47-1.5,4.21,3.19,7.4,3.5l0.15,0.66c2.18,1.93,4.36,3.85,8,3,2-1.85,1.57-5.22,1.37-7.6-1.14-.43-1.19-2.15-2.76-1.44L62,100.18c-3.64-2.28-7.29-4.56-10.66-8.64-0.18-3.78.08-8.69-.18-12.79C46.3,72,42.21,64.2,41.73,56.93A149.73,149.73,0,0,0,5.37,148.09a7,7,0,0,0,.71,0c0.3-3.19,3.29-5.27,6-6.94l0.41,0.25c-2.33,1.93-2.31,5-4.64,7,3.06,2.76,6.1,2.41,10.41,4.54,1.39,4.54,6.28,1.67,9,5.9,0.4,4.76-3.27,8.39-3.67,12.64,1.27,7,9.73,6.08,14.77,8.39,1.32-.3,4-0.58,5.65.43,6,1.75,16,.13,18.64,7.15,3.73,2.61,8.24,2.61,12.57,3.35,4.86-1.47,10.33,8.71,13.43,1.06l1.06-4.4c-2.78-4.57-10.36-2.81-15-6.26-1.17,1-2.86-.38-3.42-1.29a1.64,1.64,0,0,1,.54-2.21c2.68,1.11,5.75-.63,8.44.48,4.94,3.37,11.12,1.59,15.23,5.85,0,1.39.28,2.71-.89,3.67,0.81,0.51.63,1.24,0.46,2,5.95,6.26,16.11,6.69,22.75,6.89l2.5,1.85c-1.51,2.43-5.85,1.7-6.3,4.23-1.14-.43-1.24.64-2.15,1.19,1.39,0,1,1.17,2.28.86A46.69,46.69,0,0,1,126.29,206c2.23-.85,5.7-2.36,8.72-1.31,2.4-1.59,6.43-2.18,9.22-2.13,6.89-4.71,16.35-1.34,22.7-8.36,0.76-1.22,1.85-2.51,2.66-2l-0.15-.66c-1.21-.76-3.14-3.09-5.44-2.56-14.14,6.38-27.71,4.66-43.42,2.74l-6.26-3.07c-3,.36-8.56,2-11.78-1.44-0.31-1.32.94-2,1.92-2.18,7.68,1.7,15.15,1,22.83,2.71,8.61-.25,18.47,3.37,26.35-1.57,15.05-2.43,29.29-9.88,41.06-22,2.66-2,2.56-5.45,5.78-6.54,1.29,1.09,2.48,3.24,1.87,5.12-3.14,5.93-8.81,6.89-12.92,11.66A13.72,13.72,0,0,0,182,180c-4.86,1.47-11,5-11.27,11.27,8.1,0.56,12.66-6.74,19.51-8.67,2.43-3,5.44-6.46,9.07-7.29,1.39-9,10.92-5.29,13.75-12.54,1.32-.3,2.23-0.86,1.6-2.1,1.85-2.51,4.1-4.76,5.37-6.79-2.69-1.11-8.1-.56-8.18-5.4,0.58-.49.1-1.06-0.64-1.24-4,.91-6.81,5-10.54,6.94-1.06-.1-0.63-1.24-1.37-1.42-2.2-.53-7,1.27-5.77-2.48-0.05-1.72,1.95-3.57,3.67-3.62,3.85,0.15,4-5.09,7.17-6.51,7.35-2.74,7.58-10.77,9.58-17.13,6.05-3.82,10.46-11.78,11.73-18.32,2.71-4.78,11.86-2.74,12-8,2.31-5,5.45-11,3.07-15.28-1.29-1.09-3.29.76-4.84,0.08L235.1,79.3c0.15,0.66-.91.56-0.76,1.21-1.31.31-1.87-.61-2.17-1.92,0.2-2.13,1.62-3.5,3-5.19,2.89-1,6.51,2.66,8.79-1,0.94-2,4.21-1.32,5-2.21,1.17-1,2.94.71,2.81-1.34a3.79,3.79,0,0,1,0-4.51L254,62.11a1.64,1.64,0,0,0-2.48,1.26c-0.3-1.32-1.72.05-2.2-.53l0.07,0.33c-2.86-.38-2.53-5-2.58-6.69,0.84-.89,1.52-2.43,3.32-2.16,1.93-2.17-.5-8.2,4.64-7,1.29,1.09,2.58,2.18,1.9,3.73-1.5,1-1.87,3.9-4.19,4.43-0.2,2.13,4.11-.25,4.79,2.71,2.1,1.59-.48,3.93-0.51,5.32l-2.51,2.66c1.14,0.43,1.11,1.82.76,3.29-3.5,2.89,2.3,8.49-2.91,11.43-4,.58-2,5-3.79,6.08,0.5,3.7-5.81,7.93-5.15,12.29-1.77,2.84-3.22,5.6-1.8,8.74-1,3-4.33,3.77-5.3,7.12-2,3.25-2.28,8.16-5.68,10,0.3,1.32-1,3-2.35,3.31-1.06-.1-0.23-1-0.38-1.64,1.16-1-.28-2.71.89-3.67-1.29-5.6,7.25-10.69,5.14-16.8-1.78-1.67-3.12,0-4.54,1.39l0.4,0.25c-1.75,6-4.66,12.87-9.8,16.14,0.38,6.16-4.39,11.07-7.9,15.35-0.11,1.07-1.11,2.69.17,3.78,4.74,1,6.71-8.49,11.25-5.37-0.31,3.19-6.76,6.76-3.8,10.59,1.44,1.75,3.75,1.22,5.47,1.17,2-3.57,5.2-6.06,7.63-9,0.59-.49,2.16-1.19,2.71-0.28,1.22,0.76.05,1.72,0,2.78-3,.69-2.08,1.53-2.94,3.8-3.4,6.33-9.68,9.17-13.08,15.5l-1,.23c-0.15,3.85-5,3.93-7.73,5.6a25.09,25.09,0,0,1-7.67,7.32c-0.73-.17-1-1.17-1.87-0.61l-0.59.48,1.22,0.76c-3.85,8.86-13.35,12.79-21.86,16.49-4.58,4.18-12.13,4.53-15.91,9.22-9.93.56-15.28,6-24.6,4.63-1.59,2.1-3.39,1.83-6.11,2.1-2.13-.2-4.76.41-6.81,0.53-5.15-1.24-10.84,1.11-15.53-2.66l0.23,1c-5.32-.51-11.75,1.67-15.53-2.66a6.27,6.27,0,0,0-5.6-3.22c-4.13,1.65-6.18,6.28-9.27,9.43-2.71.28-5.37-2.23-8-3,2-3.24-3.37-8.59,2.41-10.62,2.43-3-1.9-3.72-4.11-4.25-2.3.53-3.06,6.25-6.48,5-1.7-1.34-1.42-3.14-.74-4.69l1.64-.38c-1.87-.61-0.68-3-2.31-4-4,.58-10.51-3.47-12,0.68-1.9.78-.28,1.8-1.29,3.42-0.28,1.8-.89,3.67-0.18,5.25,2.67,2.51,4.31-2.38,7,.45,1.19,2.15,2.86,4.89,5.4,5.35l0.23,1,9.52,3.7c0.56,0.91-.93,2-1.6,2.1-6.13-1-7.68-1.7-14-3.7a4,4,0,0,0-4.32,3.77c0.93,7.07,9.19,3.77,12,8.33,1.08-1.29,3-.36,4.43-0.32-1.62-1,.13-2.46,1-3,2.31-.53,4.49,1.39,6.44,2.33a1.06,1.06,0,0,0,.22,1c0.73,0.18.43-1.14,0.43-1.14,2.46,0.13,3.85-4.35,6.11-2.1,3.85,0.15,4.71-6.64,8.79-5.5a7.28,7.28,0,0,1,3.88,3.27c1.8,0.28,3.52.22,5.14,1.24a8.86,8.86,0,0,1,6.64.2c0.79,1.9,2.79.05,3.83,1.55,2.23-.86,4.92.25,6-1,1.52,2.08,3.42,1.29,3,3.82-3.67,3.63-8.67-1.47-12.44-1.29l-0.48-.59c-4.13,1.65-7.07.94-11.25,0.87L95.41,218c-5.12,1.88-13.55-3.12-15.73,4,2.08,3,3.09,5.88,4.84,8.94,5.45,2.55,3-9.37,9.68-4.66l-0.43,1.14c2.86,0.38,7.47-5.2,8.94-.33-1.62,3.5-5.32,4-8,6-1.14,4.08-6.67,5.7-4,9.6,5.45,2.56,11.3.86,16-1.27-2.13-.2-0.43-3.37.81-4l7.42-2.4c2.08,3,6.41,3.72,8.77,4.91,1.6-2.1,6.61,1.59,8.31-1.57,2.56-.94,7-2.66,10.14-2.69,5.52,2.89,7.09-2.33,12.64-.83,6.76-2.26,13.91-2.87,18.9-6.8,3.64-2.23,8.13-5.34,11.93-2.4-0.33.08-.25,0.4-0.17,0.74a38.68,38.68,0,0,1,8.61-4.76l1.57-.71-0.33.08c3.83-3,6.51-6.36,11.23-8.49l0.76-1.21c3-.68,6.08-5.22,9-3.12-1.95,3.57-5,6.71-8.05,10.18-3.55,1.17-6.66,1.19-9.27,4.91-3.57,2.56-6.26,6-10.11,5.8A10.23,10.23,0,0,1,182,231c-3.24,2.48-8.05,5.67-12.41,6.33-1.92-2.33-5.32-.51-7.3-0.05-7.15.61-12.24,5.6-20,5-7.07.94-10.57,3.82-16.55,3.47-9-2.79-16.21,3.4-25.89,3.55-3.7.51-6.63-.21-11.1,1.51-1.22-.76-1.42-3.14-1.24-3.87a63.5,63.5,0,0,0-7.6-1.37c-3.19-.3-6.64-0.2-8.56,2,0.56,0.91.13,2.05,0.43,3.37,1.59,2.4,1.8,4.79,3.06,7.27,12.94,0.48,21.23.31,33.31-1.45,7.6,1.37,15.86,2.59,23.44.84,2.85,0.38,6.76-2.26,8.69.07,2,0.94,1.09,3.22-.48,3.93-4.48,3.11-8.26-1.21-12,2.08-4.69.73-8.84-.74-13.35-0.74-4.1.25-8.77,4.1-11-.94-0.4-.26-1.22-0.76-1-1.49-2.68-1.12-4.74,3.53-5.6,5.8,1.44,1.75-1.45,2.76-.66,4.66l1-.23c0.48,0.58-.2,2.12-1.19,2.36-5,.81-9.55,2.2-14-0.58,0.73-4.33,6.38.61,8.66-3,1.67-1.77,1-3,.33-4.59-2.91-2.1-5,.81-7.7-0.3-3.34-1-5.85,1.7-8.84-.73-0.71-1.57,1.69-3.17-.33-4.44-0.73-.18-2.13-0.2-2.56.94-1.45,2.76,4,3.6.53,6.81-0.58.49-1.59,2.1-3.14,1.42-2.1-1.59-2.69-5.63-5.8-5.6-1.46,2-2.75,4.77-4.77,6.56,2.95,2.49,6,4.84,9.13,7.1A3.51,3.51,0,0,1,68.2,276c2.38-.2,5.42-0.56,7.27,1.44,0.41,1.76-1.13,2.32-2.29,3.1a150.74,150.74,0,0,0,16.17,9.21c3.1,0.72,6.18,1.39,9.22,2.13,1.72-.06,2.89-1,4.38-2.06,0.73-4.33,2.33-10.94,7.53-12.49,2.53,0.46,6.36-2.51,9.7-1.54-0.26.41-.59,0.49-0.51,0.81,1.83-1.12,3.67.89,4.38,2.46,1,1.49-.15,3.84,2.28,5.37,5.63,1.82,11.83-1.35,17.53.81,1.9-.78,4-0.58,4.49,1.4a2.84,2.84,0,0,1-3.32,2.15c-1.27-2.48-2.08,1.52-3.62.84-2,.46-5.82.3-7.68-1.7-3,4.86-10.13,2.68-14.54,1.62-1.06-.11-0.71-1.57-0.46-2a2.62,2.62,0,0,0,1-1.62c-0.88-.83-1.67-2.73-3.55-3.34-2,1.85-4.43.33-6,2.43,0,1.39,1.52,2.08,2.15,3.32-0.2,2.12-2.91,2.4-3.45,4.61l-0.33.08c2.18,1.93,3,2.43,5.57,4.61a4.55,4.55,0,0,1-1.25,1.24A148.87,148.87,0,0,0,152.36,305Z" transform="translate(-5.18 -5)"/>
    <path class="cls-3" d="M98.42,201c1.53,2.08,5,2,7.5,2.43l3.22-1.08c-1.54-5.2-7.19-5.63-11.53-6.36-1.23.63-2.32,1.93-2,3.24C96.15,200.17,96.35,202.55,98.42,201Z" transform="translate(-5.18 -5)"/>
    <path class="cls-3" d="M14.55,156.21c-3.43-.73-6.29-2.54-9.33-4.24-0.05,2.86,0,5.74.1,8.64,0.72,0.25,1.8.07,2.41,0.64,3.14-1.42,6.59,3,9.4,1.65a1.76,1.76,0,0,0,1.47.35A9.39,9.39,0,0,0,14.55,156.21Z" transform="translate(-5.18 -5)"/>
    <path class="cls-2" d="M85.77,186.21q-2.12-2.31-2.12-6.59v-0.76a29,29,0,0,1-12.89,8.49,24.37,24.37,0,0,1-7.84,1.17,23,23,0,0,1-10.41-2.39,24.31,24.31,0,0,1-8.3-6.82,31.28,31.28,0,0,1-5.31-10.43,44.65,44.65,0,0,1-1.81-13q0-14.74,7.18-23t18.88-8.24a25.05,25.05,0,0,1,11.42,2.36,28.53,28.53,0,0,1,9.07,6.5V111q0-4.88,1.95-7.37a6.62,6.62,0,0,1,5.55-2.5,6.89,6.89,0,0,1,5.54,2.28q1.95,2.28,1.95,6.71v69.43q0,4.5-2.09,6.75a7.5,7.5,0,0,1-10.77-.06h0ZM54.85,146A28.13,28.13,0,0,0,53,156.59a26.93,26.93,0,0,0,2,10.87,15.1,15.1,0,0,0,5.39,6.76,13.25,13.25,0,0,0,7.48,2.27,13.68,13.68,0,0,0,7.5-2.16,14.83,14.83,0,0,0,5.42-6.62,26.94,26.94,0,0,0,2-11.13,26.28,26.28,0,0,0-2-10.78,16.21,16.21,0,0,0-5.48-6.9,13,13,0,0,0-7.56-2.39A12.7,12.7,0,0,0,60.07,139a15.65,15.65,0,0,0-5.22,7h0Z" transform="translate(-5.18 -5)"/>
    <path class="cls-2" d="M269.32,187.67c-4.12,2.46-11-.59-14.18-7.35-3.79,3-8.69,8.2-22.93,8.2a22.59,22.59,0,0,1-10.61-2.39,17.42,17.42,0,0,1-7-6.48,16.8,16.8,0,0,1-2.47-8.86,16,16,0,0,1,4.12-11c4.8-5.42,16.17-7.56,20.12-8.27,7.76-1.37,17.77-1.67,17.77-5.89,0-7.66-7-10-11.66-10-10,0-13.14,4-14.55,6.16-4.13,6.42-9.76,5.2-11,4.06a5.51,5.51,0,0,1-1.92-4.34,13.27,13.27,0,0,1,2.93-8q2.94-3.9,9.16-6.44a41.49,41.49,0,0,1,15.5-2.53q10.38,0,16.3,2.44a15.18,15.18,0,0,1,8.39,7.73q2.44,5.3,2.45,14,0,5.52,0,9.38c0,2.57,0,5.43-.09,8.57a40.11,40.11,0,0,0,1.86,10.54c1.26,4,2,8-2.08,10.47h0Zm-14.64-26c0-4-5.78-3-10.75-2.43a53.83,53.83,0,0,0-9.06,2.05,12.41,12.41,0,0,0-4.8,2.57,6.59,6.59,0,0,0-2.28,5.33,7.88,7.88,0,0,0,2.68,6,9.94,9.94,0,0,0,7,2.49,21.55,21.55,0,0,0,9.33-2,13.47,13.47,0,0,0,5.75-5.22c1.41-2.36,2.11-3.37,2.11-8.78h0Z" transform="translate(-5.18 -5)"/>
    <path class="cls-2" d="M159,128.59a6.92,6.92,0,0,0-2.67-2.91,7.26,7.26,0,0,0-3.73-1,6.72,6.72,0,0,0-5.33,2.21q-2,2.21-2,6.69V179q0,4.6,2.18,7.07a7.11,7.11,0,0,0,5.57,2.47,7.45,7.45,0,0,0,5.71-2.39c1.47-1.59,2.21-4,2.21-7.17v-19.7q0-9.61,1.15-13.13a14.43,14.43,0,0,1,5.09-6.88,12.85,12.85,0,0,1,7.69-2.51q6.48,0,8.65,4.12t2.17,11.89V179q0,4.61,2.19,7.08a7.77,7.77,0,0,0,11.32.06c1.44-1.6,2.16-4,2.16-7.13V149.72a64.44,64.44,0,0,0-.46-8.52,18.15,18.15,0,0,0-2-6.21,17.11,17.11,0,0,0-7.34-7.59,22.84,22.84,0,0,0-11.14-2.68A26.12,26.12,0,0,0,160,134.43v-1.1a10.16,10.16,0,0,0-1-4.74h0Z" transform="translate(-5.18 -5)"/>
    <path class="cls-2" d="M128,127.08a7.5,7.5,0,0,0-5.68-2.36,7.22,7.22,0,0,0-5.6,2.36c-1.43,1.57-2.15,3.91-2.15,7V179q0,4.6,2.15,7.07a7.09,7.09,0,0,0,5.6,2.47,7.41,7.41,0,0,0,5.68-2.42q2.24-2.41,2.24-7.13V133.62a9.13,9.13,0,0,0-2.24-6.55h0Z" transform="translate(-5.18 -5)"/>
    <path class="cls-2" d="M128,103.46a7.5,7.5,0,0,0-5.68-2.36,7.22,7.22,0,0,0-5.6,2.36q-2.15,2.36-2.15,7v1.3q0,4.6,2.15,7.07a7.09,7.09,0,0,0,5.6,2.47A7.43,7.43,0,0,0,128,118.9q2.24-2.42,2.24-7.13V110a9.12,9.12,0,0,0-2.24-6.55h0Z" transform="translate(-5.18 -5)"/>
    <path class="cls-4" d="M83.73,184.17q-2.12-2.31-2.12-6.59v-0.75a29,29,0,0,1-12.89,8.48,24.26,24.26,0,0,1-7.84,1.17,23,23,0,0,1-10.41-2.39,24.26,24.26,0,0,1-8.3-6.83,31.21,31.21,0,0,1-5.31-10.43,44.64,44.64,0,0,1-1.8-13q0-14.75,7.17-23t18.89-8.23A25,25,0,0,1,72.54,125a28.57,28.57,0,0,1,9.07,6.49v-22.6q0-4.88,1.94-7.37a6.63,6.63,0,0,1,5.55-2.49,6.89,6.89,0,0,1,5.55,2.28q1.95,2.28,1.95,6.71v69.43q0,4.5-2.09,6.75a7.5,7.5,0,0,1-10.77-.06h0ZM52.8,143.94A28.15,28.15,0,0,0,51,154.54a27,27,0,0,0,2,10.87,15.08,15.08,0,0,0,5.39,6.76,13.22,13.22,0,0,0,7.48,2.27,13.67,13.67,0,0,0,7.5-2.15,14.81,14.81,0,0,0,5.42-6.62,26.93,26.93,0,0,0,2-11.13,26.21,26.21,0,0,0-2-10.78,16.19,16.19,0,0,0-5.48-6.9,13,13,0,0,0-7.56-2.38A12.68,12.68,0,0,0,58,136.92a15.66,15.66,0,0,0-5.22,7h0Z" transform="translate(-5.18 -5)"/>
    <path class="cls-4" d="M267.28,185.63c-4.12,2.45-11-.59-14.19-7.35-3.79,3-8.69,8.2-22.93,8.2a22.59,22.59,0,0,1-10.61-2.39,17.45,17.45,0,0,1-7-6.48,16.84,16.84,0,0,1-2.47-8.86,16,16,0,0,1,4.12-11c4.81-5.42,16.17-7.56,20.12-8.26,7.76-1.37,17.77-1.67,17.77-5.89,0-7.66-7-10-11.66-10-10,0-13.14,4-14.55,6.16-4.13,6.42-9.75,5.2-11,4.06a5.49,5.49,0,0,1-1.92-4.34,13.26,13.26,0,0,1,2.93-8q2.94-3.9,9.16-6.44t15.5-2.53q10.38,0,16.3,2.44a15.18,15.18,0,0,1,8.39,7.73q2.44,5.29,2.45,14,0,5.52,0,9.38c0,2.57,0,5.43-.09,8.57a40.18,40.18,0,0,0,1.86,10.54c1.26,4,2,8-2.08,10.47h0Zm-14.64-26c0-4-5.78-3-10.75-2.43a54.25,54.25,0,0,0-9.06,2.06,12.35,12.35,0,0,0-4.8,2.57,6.59,6.59,0,0,0-2.28,5.33,7.89,7.89,0,0,0,2.68,6,9.94,9.94,0,0,0,7,2.49,21.62,21.62,0,0,0,9.33-2,13.48,13.48,0,0,0,5.75-5.22c1.41-2.36,2.11-3.38,2.11-8.78h0Z" transform="translate(-5.18 -5)"/>
    <path class="cls-4" d="M156.94,126.55a6.94,6.94,0,0,0-2.67-2.91,7.3,7.3,0,0,0-3.73-1,6.72,6.72,0,0,0-5.33,2.21q-2,2.21-2,6.69v45.35q0,4.6,2.18,7.07a7.13,7.13,0,0,0,5.57,2.47,7.44,7.44,0,0,0,5.71-2.39c1.48-1.59,2.21-4,2.21-7.17v-19.7q0-9.61,1.15-13.13a14.4,14.4,0,0,1,5.09-6.88,12.85,12.85,0,0,1,7.69-2.5q6.48,0,8.65,4.12t2.17,11.89v26.2q0,4.61,2.19,7.08a7.27,7.27,0,0,0,5.7,2.48,7.19,7.19,0,0,0,5.62-2.42c1.44-1.61,2.16-4,2.16-7.14V147.67a64.41,64.41,0,0,0-.46-8.52,18.2,18.2,0,0,0-2-6.22,17.1,17.1,0,0,0-7.34-7.58,22.84,22.84,0,0,0-11.14-2.68,26.14,26.14,0,0,0-20.44,9.71v-1.1a10.17,10.17,0,0,0-1-4.73h0Z" transform="translate(-5.18 -5)"/>
    <path class="cls-4" d="M125.92,125a7.49,7.49,0,0,0-5.68-2.36,7.22,7.22,0,0,0-5.6,2.36c-1.43,1.57-2.15,3.91-2.15,7v44.89q0,4.6,2.15,7.07a7.1,7.1,0,0,0,5.6,2.47,7.41,7.41,0,0,0,5.68-2.42q2.24-2.41,2.24-7.13V131.58a9.12,9.12,0,0,0-2.24-6.55h0Z" transform="translate(-5.18 -5)"/>
    <path class="cls-4" d="M125.92,101.41a7.49,7.49,0,0,0-5.68-2.36,7.22,7.22,0,0,0-5.6,2.36q-2.15,2.36-2.15,7v1.3q0,4.6,2.15,7.07a7.09,7.09,0,0,0,5.6,2.47,7.42,7.42,0,0,0,5.68-2.41q2.24-2.42,2.24-7.13V108a9.12,9.12,0,0,0-2.24-6.55h0Z" transform="translate(-5.18 -5)"/>
  </g>
</svg>
